<svg xmlns="http://www.w3.org/2000/svg" viewBox="0 0 43.57 49.93"><defs><style>.cls-1{fill:#fff;}</style></defs><g id="Layer_2" data-name="Layer 2"><g id="Layer_1-2" data-name="Layer 1"><path class="cls-1" d="M13.51,13.11a.62.62,0,1,0,.87,0A.61.61,0,0,0,13.51,13.11Z"/><path class="cls-1" d="M26.87,21,22.21,16.3a1.59,1.59,0,0,0-2.23,0L16.7,19.59a1.56,1.56,0,0,0,0,2.22l4.66,4.67a1.59,1.59,0,0,0,2.23,0l3.28-3.29A1.58,1.58,0,0,0,26.87,21Zm-.74,1.48-3.28,3.28a.53.53,0,0,1-.75,0l-4.66-4.66a.53.53,0,0,1,0-.74l3.28-3.28a.51.51,0,0,1,.74,0l4.67,4.66A.53.53,0,0,1,26.13,22.45Z"/><circle class="cls-1" cx="16.14" cy="15.75" r="0.62"/><circle class="cls-1" cx="11.74" cy="15.76" r="0.62"/><path class="cls-1" d="M18.79,14a.62.62,0,1,0-.88,0A.63.63,0,0,0,18.79,14Z"/><path class="cls-1" d="M16.59,11.79a.63.63,0,0,0,0-.88.61.61,0,0,0-.88,0,.62.62,0,1,0,.88.88Z"/><path class="cls-1" d="M24.78,28.8a.62.62,0,1,0,.88,0A.61.61,0,0,0,24.78,28.8Z"/><path class="cls-1" d="M13.5,17.51a.62.62,0,1,0,.88.88.62.62,0,0,0-.88-.88Z"/><circle class="cls-1" cx="27.42" cy="31.43" r="0.62"/><path class="cls-1" d="M43.26,12.22a12.51,12.51,0,0,0-5.15-8.16A20.65,20.65,0,0,0,30.55.87,43.06,43.06,0,0,0,21.8,0a38.87,38.87,0,0,0-7.45.62A24.7,24.7,0,0,0,7.09,3,12.67,12.67,0,0,0,.7,10.66a17.66,17.66,0,0,0-.42,8.11A40.28,40.28,0,0,0,3.72,29.43a73.43,73.43,0,0,0,5.8,9.92A46.9,46.9,0,0,0,14.93,46a16.75,16.75,0,0,0,4.71,3.51,3.31,3.31,0,0,0,1.74.38,4.12,4.12,0,0,1,.86,0,3.15,3.15,0,0,0,1.62-.35,16.58,16.58,0,0,0,5.53-4.29A71.51,71.51,0,0,0,37.7,33.6a50.66,50.66,0,0,0,5.09-12.35A20.41,20.41,0,0,0,43.26,12.22ZM16.09,35a3.12,3.12,0,0,1-4.43,0L8.18,31.52a3.15,3.15,0,0,1,0-4.44l4.43-4.42,7.91,7.91Zm19.3-3.47L31.91,35a3.12,3.12,0,0,1-4.43,0l-5.7-5.69-7.91-7.91L8.18,15.7a3.15,3.15,0,0,1,0-4.44l3.48-3.47a3.12,3.12,0,0,1,4.43,0l5.69,5.69,7.91,7.91,5.7,5.69A3.15,3.15,0,0,1,35.39,31.52Zm0-15.82L31,20.12l-7.91-7.91,4.43-4.42a3.12,3.12,0,0,1,4.43,0l3.48,3.47A3.15,3.15,0,0,1,35.39,15.7Z"/><path class="cls-1" d="M29.19,24.39a.62.62,0,1,0,.88,0A.61.61,0,0,0,29.19,24.39Z"/><path class="cls-1" d="M31.39,26.58a.63.63,0,0,0,0,.88.61.61,0,0,0,.88,0,.62.62,0,0,0-.88-.88Z"/><circle class="cls-1" cx="27.43" cy="27.03" r="0.62"/><path class="cls-1" d="M29.18,28.79a.62.62,0,1,0,.88,0A.63.63,0,0,0,29.18,28.79Z"/></g></g></svg>