<svg xmlns="http://www.w3.org/2000/svg" viewBox="0 0 235.1 41.17"><defs><style>.cls-1{fill:#fff;}</style></defs><g id="Layer_2" data-name="Layer 2"><g id="Layer_1-2" data-name="Layer 1"><path class="cls-1" d="M11.14,10.81a.52.52,0,0,0,0,.73.51.51,0,0,0,.72,0,.52.52,0,0,0,0-.73A.51.51,0,0,0,11.14,10.81Z"/><path class="cls-1" d="M22.15,17.29l-3.84-3.85a1.32,1.32,0,0,0-1.84,0l-2.7,2.71a1.3,1.3,0,0,0,0,1.84l3.84,3.84a1.3,1.3,0,0,0,1.84,0l2.7-2.71A1.29,1.29,0,0,0,22.15,17.29Zm-.61,1.22-2.7,2.71a.44.44,0,0,1-.62,0l-3.84-3.85a.43.43,0,0,1,0-.61l2.71-2.7a.43.43,0,0,1,.61,0l3.84,3.84A.43.43,0,0,1,21.54,18.51Z"/><circle class="cls-1" cx="13.31" cy="12.98" r="0.51"/><circle class="cls-1" cx="9.68" cy="12.99" r="0.51"/><path class="cls-1" d="M15.49,11.53a.52.52,0,0,0,0-.73.51.51,0,0,0-.72,0,.52.52,0,0,0,0,.73A.51.51,0,0,0,15.49,11.53Z"/><path class="cls-1" d="M13.68,9.72a.52.52,0,1,0-.73,0A.52.52,0,0,0,13.68,9.72Z"/><path class="cls-1" d="M20.43,23.74a.52.52,0,1,0,.73,0A.52.52,0,0,0,20.43,23.74Z"/><path class="cls-1" d="M11.13,14.44a.52.52,0,0,0,0,.73.51.51,0,0,0,.72,0,.52.52,0,0,0,0-.73A.51.51,0,0,0,11.13,14.44Z"/><circle class="cls-1" cx="22.61" cy="25.92" r="0.51"/><path class="cls-1" d="M35.67,10.08a10.33,10.33,0,0,0-4.25-6.74A17.07,17.07,0,0,0,25.19.72,35.54,35.54,0,0,0,18,0a32.29,32.29,0,0,0-6.15.51,20.49,20.49,0,0,0-6,2A10.46,10.46,0,0,0,.58,8.79a14.56,14.56,0,0,0-.35,6.69,33.23,33.23,0,0,0,2.84,8.79,59.54,59.54,0,0,0,4.78,8.17A37.46,37.46,0,0,0,12.31,38a13.65,13.65,0,0,0,3.89,2.89,2.62,2.62,0,0,0,1.43.32,4.21,4.21,0,0,1,.71,0,2.59,2.59,0,0,0,1.33-.29,13.6,13.6,0,0,0,4.56-3.54,59.19,59.19,0,0,0,6.86-9.62,42.16,42.16,0,0,0,4.19-10.19A16.85,16.85,0,0,0,35.67,10.08ZM13.27,28.85a2.59,2.59,0,0,1-3.66,0L6.74,26a2.6,2.6,0,0,1,0-3.65l3.65-3.65,6.53,6.52ZM29.18,26l-2.87,2.87a2.58,2.58,0,0,1-3.65,0L18,24.16l-6.52-6.52-4.7-4.7a2.6,2.6,0,0,1,0-3.65L9.61,6.42a2.59,2.59,0,0,1,3.66,0L18,11.11l6.52,6.53,4.7,4.69A2.58,2.58,0,0,1,29.18,26Zm0-13-3.65,3.65L19,10.07l3.65-3.65a2.58,2.58,0,0,1,3.65,0l2.87,2.87A2.58,2.58,0,0,1,29.18,12.94Z"/><path class="cls-1" d="M24.07,20.11a.51.51,0,1,0,.72,0A.51.51,0,0,0,24.07,20.11Z"/><path class="cls-1" d="M25.88,21.92a.51.51,0,1,0,.72,0A.51.51,0,0,0,25.88,21.92Z"/><circle class="cls-1" cx="22.61" cy="22.29" r="0.51"/><path class="cls-1" d="M24.06,23.74a.51.51,0,0,0,0,.72.52.52,0,0,0,.73,0,.51.51,0,0,0,0-.72A.52.52,0,0,0,24.06,23.74Z"/><path class="cls-1" d="M51.6,2.18v8.4q0,1.42-.09,2.73c-.07.87-.15,1.68-.24,2.45h.33A9.77,9.77,0,0,1,54.34,13a7.74,7.74,0,0,1,4.44-1.15,8.28,8.28,0,0,1,6.91,3.57Q68.38,19,68.37,25.72a21.07,21.07,0,0,1-1.24,7.74,10.18,10.18,0,0,1-3.47,4.73,8.67,8.67,0,0,1-5.16,1.58,7.93,7.93,0,0,1-4.36-1,14,14,0,0,1-2.54-2.13H51L49.55,39.3H42.28V2.18Zm3.77,16.94a3.59,3.59,0,0,0-2.12.59A3.52,3.52,0,0,0,52,21.56a10.57,10.57,0,0,0-.41,3.19v1.31a9.85,9.85,0,0,0,.85,4.67,3.14,3.14,0,0,0,3,1.53A2.73,2.73,0,0,0,58,30.57a11,11,0,0,0,.89-4.94A10.87,10.87,0,0,0,58,20.75,2.81,2.81,0,0,0,55.37,19.12Z"/><path class="cls-1" d="M86.36,11.8c3.42,0,6.09.84,8,2.54a9.09,9.09,0,0,1,2.89,7.23V39.3H90.8L89,35.72h-.19A13.13,13.13,0,0,1,86.47,38a8.11,8.11,0,0,1-2.76,1.32,15.19,15.19,0,0,1-3.79.41,9.14,9.14,0,0,1-4.2-1,6.92,6.92,0,0,1-2.93-2.89A9.89,9.89,0,0,1,71.72,31a7.33,7.33,0,0,1,3-6.44c2-1.39,4.91-2.18,8.71-2.36l4.5-.14v-.38A3.22,3.22,0,0,0,87,19.14a3.58,3.58,0,0,0-2.4-.76,13.26,13.26,0,0,0-3.56.56,28.54,28.54,0,0,0-4,1.44l-2.7-6.15a20.91,20.91,0,0,1,5.3-1.81A31.94,31.94,0,0,1,86.36,11.8ZM88,27.23l-2.14.09a6.51,6.51,0,0,0-3.62.9,2.71,2.71,0,0,0-1,2.28,2.57,2.57,0,0,0,.74,2,2.85,2.85,0,0,0,2,.66,4.24,4.24,0,0,0,2.9-1.07A3.58,3.58,0,0,0,88,29.33Z"/><path class="cls-1" d="M119.73,11.8a9.83,9.83,0,0,1,6.82,2.36q2.65,2.36,2.65,7.56V39.3h-9.33V24.56a8.54,8.54,0,0,0-.77-4.07,2.67,2.67,0,0,0-2.5-1.37,3.48,3.48,0,0,0-3.55,2.16,16.66,16.66,0,0,0-.91,6.19V39.3h-9.32v-27h7l1.27,3.58h.36a8.74,8.74,0,0,1,2-2.19,8.63,8.63,0,0,1,2.74-1.39A12,12,0,0,1,119.73,11.8Z"/><path class="cls-1" d="M143.35,39.77a8.28,8.28,0,0,1-6.87-3.55q-2.7-3.55-2.69-10.4t2.76-10.47a8.67,8.67,0,0,1,7.16-3.55,8.35,8.35,0,0,1,3.12.52,7.15,7.15,0,0,1,2.28,1.42,9.86,9.86,0,0,1,1.68,2H151c-.11-.69-.21-1.63-.31-2.83s-.14-2.37-.14-3.52V2.18h9.4V39.3h-7l-2-3.41h-.36a9,9,0,0,1-1.61,2,7.17,7.17,0,0,1-2.34,1.41A9,9,0,0,1,143.35,39.77Zm3.82-7.37A3.47,3.47,0,0,0,150.33,31a8.49,8.49,0,0,0,1-4.32v-.74a10.77,10.77,0,0,0-.9-4.91,3.43,3.43,0,0,0-3.35-1.7,3.24,3.24,0,0,0-2.76,1.62,9,9,0,0,0-1.1,5,8.46,8.46,0,0,0,1.11,4.9A3.37,3.37,0,0,0,147.17,32.4Z"/><path class="cls-1" d="M178.56,11.8c3.41,0,6.09.84,8,2.54a9.13,9.13,0,0,1,2.89,7.23V39.3H183l-1.79-3.58H181A12.5,12.5,0,0,1,178.66,38a8.06,8.06,0,0,1-2.75,1.32,15.25,15.25,0,0,1-3.79.41,9.14,9.14,0,0,1-4.2-1A6.92,6.92,0,0,1,165,35.93,9.89,9.89,0,0,1,163.91,31a7.31,7.31,0,0,1,3-6.44q3-2.09,8.7-2.36l4.51-.14v-.38a3.26,3.26,0,0,0-.89-2.58,3.58,3.58,0,0,0-2.4-.76,13.33,13.33,0,0,0-3.57.56,28.9,28.9,0,0,0-3.94,1.44l-2.7-6.15a20.78,20.78,0,0,1,5.3-1.81A31.94,31.94,0,0,1,178.56,11.8Zm1.62,15.43-2.15.09a6.48,6.48,0,0,0-3.61.9,2.71,2.71,0,0,0-1,2.28,2.57,2.57,0,0,0,.74,2,2.83,2.83,0,0,0,2,.66A4.22,4.22,0,0,0,179,32.12a3.56,3.56,0,0,0,1.21-2.79Z"/><path class="cls-1" d="M199.71,1.4a7.09,7.09,0,0,1,3.49.83c1,.56,1.49,1.66,1.49,3.32s-.5,2.69-1.49,3.25a6.89,6.89,0,0,1-3.49.85,6.75,6.75,0,0,1-3.5-.85c-1-.56-1.44-1.65-1.44-3.25s.48-2.76,1.44-3.32A7,7,0,0,1,199.71,1.4Zm4.62,10.87v27H195v-27Z"/><path class="cls-1" d="M218.52,39.77a8.28,8.28,0,0,1-6.87-3.55Q209,32.67,209,25.82t2.77-10.47a8.65,8.65,0,0,1,7.15-3.55,8.44,8.44,0,0,1,3.13.52,7.22,7.22,0,0,1,2.27,1.42,10.24,10.24,0,0,1,1.69,2h.19c-.12-.69-.22-1.63-.31-2.83s-.15-2.37-.15-3.52V2.18h9.4V39.3h-7l-2-3.41h-.36a8.71,8.71,0,0,1-1.61,2,7.22,7.22,0,0,1-2.33,1.41A9.1,9.1,0,0,1,218.52,39.77Zm3.82-7.37A3.47,3.47,0,0,0,225.5,31a8.49,8.49,0,0,0,1-4.32v-.74A10.92,10.92,0,0,0,225.6,21a3.46,3.46,0,0,0-3.36-1.7,3.24,3.24,0,0,0-2.76,1.62,9.13,9.13,0,0,0-1.1,5,8.46,8.46,0,0,0,1.11,4.9A3.37,3.37,0,0,0,222.34,32.4Z"/></g></g></svg>