<svg xmlns="http://www.w3.org/2000/svg" viewBox="0 0 300 38.8"><defs><style>.cls-1{fill:#fff;}</style></defs><g id="Layer_2" data-name="Layer 2"><g id="Layer_1-2" data-name="Layer 1"><path class="cls-1" d="M5.54,38.8V33.26H0V0H11.09V11.09H33.26v5.54H38.8V33.26H33.26V38.8Zm5.55-5.54H27.71V16.63H11.09Z"/><path class="cls-1" d="M49.34,38.8V33.26H43.79V27.71h5.55V22.17H71.51V16.63H49.34V11.09H77.05v5.54h5.54V38.8Zm5.54-5.54H71.51V27.71H54.88Z"/><path class="cls-1" d="M88.34,38.8V11.09h33.25v5.54h5.55V38.8H116.05V16.63H99.42V38.8Z"/><path class="cls-1" d="M138.28,38.8V33.26h-5.54V16.63h5.54V11.09h22.17V0h11.09V38.8Zm5.54-5.54h16.63V16.63H143.82Z"/><path class="cls-1" d="M182.07,38.8V33.26h-5.54V27.71h5.54V22.17h22.18V16.63H182.07V11.09h27.72v5.54h5.54V38.8Zm5.55-5.54h16.63V27.71H187.62Z"/><path class="cls-1" d="M223,38.8V33.26H234V16.63h-5.55V11.09h16.63V33.26h11.09V38.8ZM234,5.54V0h11.08V5.54Z"/><path class="cls-1" d="M266.74,38.8V33.26H261.2V16.63h5.54V11.09h22.17V0H300V38.8Zm5.55-5.54h16.62V16.63H272.29Z"/></g></g></svg>